<?xml version="1.0" encoding="utf-8"?>
<svg xmlns="http://www.w3.org/2000/svg" viewBox="0 0 40 54">
<path d="M2.6,20.4L19,30.1l5.5,3.2L8.1,43.1v-13l-5.5-3.3v19.8c0,0.6,0.2,1.2,0.5,1.8c0.3,0.5,0.7,1,1.3,1.3c1.1,0.6,2.4,0.6,3.5,0
	l22.3-13.3c0.5-0.3,1-0.8,1.2-1.3c0.6-1.1,0.6-2.5,0-3.6c-0.3-0.5-0.7-1-1.3-1.3h-0.1l5.5-3.3c0.5-0.3,1-0.8,1.3-1.3
	c0.6-1.1,0.6-2.5,0-3.6c-0.3-0.5-0.7-1-1.3-1.3L7.8,4.3c-1.1-0.6-2.4-0.6-3.5,0C3.8,4.6,3.4,5,3.1,5.6C2.8,6.1,2.6,6.7,2.6,7.3
	 M8.1,17.1v-6.2l21.8,13L24.7,27"/>
</svg>
