<?xml version="1.0" encoding="utf-8"?>
<svg xmlns="http://www.w3.org/2000/svg" viewBox="0 0 960 960">
    <path d="M110,168.2V180l0,0v13.2c20.2-13,44.3-20.5,70-20.5c71.7,0,130,58.3,130,130s-58.3,130-130,130
		c-25.8,0-49.8-7.5-70-20.5v135.6c20.2-13,44.3-20.5,70-20.5c71.7,0,130,58.3,130,130s-58.3,130-130,130c-25.8,0-49.8-7.5-70-20.5
		V780l0,0v11.8c0,77,83.3,125.1,150,86.6l540-311.8c66.7-38.5,66.7-134.7,0-173.2L260,81.6C193.3,43.1,110,91.2,110,168.2z M710,480
		L430,641.7V318.4L710,480z"/>
    <path d="M110,302.7c0,38.6,31.4,70,70,70s70-31.4,70-70s-31.4-70-70-70S110,264.1,110,302.7z"/>
    <path d="M110,657.3c1.6,92,138.4,92,140,0C248.3,565.3,111.6,565.3,110,657.3z"/>
</svg>